<svg width="108" height="99" viewBox="0 0 108 99" fill="none" xmlns="http://www.w3.org/2000/svg">
<rect x="12" width="84" height="84" rx="42" fill="#C83B38"/>
<path fill-rule="evenodd" clip-rule="evenodd" d="M36 42C36 32.064 44.046 24 53.982 24C63.936 24 72 32.064 72 42C72 51.936 63.936 60 53.982 60C44.046 60 36 51.936 36 42ZM48 39C49.2426 39 50.25 37.9926 50.25 36.75C50.25 35.5074 49.2426 34.5 48 34.5C46.7574 34.5 45.75 35.5074 45.75 36.75C45.75 37.9926 46.7574 39 48 39ZM60 39C61.2426 39 62.25 37.9926 62.25 36.75C62.25 35.5074 61.2426 34.5 60 34.5C58.7574 34.5 57.75 35.5074 57.75 36.75C57.75 37.9926 58.7574 39 60 39ZM54 57.75C45.2981 57.75 38.25 50.7019 38.25 42C38.25 33.2981 45.2981 26.25 54 26.25C62.7019 26.25 69.75 33.2981 69.75 42C69.75 50.7019 62.7019 57.75 54 57.75ZM45.75 51.75C47.0391 48.2357 50.2456 45.75 54 45.75C57.7544 45.75 60.9609 48.2357 62.25 51.75H59.5591C58.4312 49.71 57 48 54 48C51 48 49.5527 49.71 48.4409 51.75H45.75Z" fill="white"/>
<rect x="1.25" y="68" width="105.5" height="30.5" rx="15.25" fill="white"/>
<path d="M34.8179 78.25H31.9479V77.074H30.4919V78.25H27.5939V79.3H34.8179V78.25ZM29.5539 81.582C29.5539 81.008 30.1979 80.658 31.2059 80.658C32.2139 80.658 32.8579 81.008 32.8579 81.582C32.8579 82.142 32.2139 82.478 31.2059 82.478C30.1979 82.478 29.5539 82.142 29.5539 81.582ZM35.1679 83.906C34.1459 84.06 33.0399 84.13 31.9479 84.186V83.402C33.3479 83.234 34.2159 82.576 34.2159 81.582C34.2159 80.406 33.0259 79.692 31.2059 79.692C29.3859 79.692 28.1959 80.406 28.1959 81.582C28.1959 82.576 29.0639 83.248 30.4919 83.402V84.242C29.3299 84.27 28.2239 84.27 27.2719 84.27L27.4399 85.418C29.6519 85.404 32.6059 85.39 35.2799 84.914L35.1679 83.906ZM28.8399 87.448H35.8399V89.842H37.2819V86.3H28.8399V87.448ZM39.0179 80.924H37.2819V77.2H35.8399V85.74H37.2819V82.114H39.0179V80.924ZM50.6788 77.186H49.2368V86.37H50.6788V77.186ZM41.9148 81.19C41.9148 80.028 42.7408 79.272 43.8608 79.272C44.9668 79.272 45.8068 80.028 45.8068 81.19C45.8068 82.338 44.9668 83.108 43.8608 83.108C42.7408 83.108 41.9148 82.338 41.9148 81.19ZM47.2068 81.19C47.2068 79.342 45.7648 78.026 43.8608 78.026C41.9568 78.026 40.5008 79.342 40.5008 81.19C40.5008 83.024 41.9568 84.354 43.8608 84.354C45.7648 84.354 47.2068 83.024 47.2068 81.19ZM43.8748 88.414V85.446H42.4188V89.59H51.0428V88.414H43.8748ZM60.4023 84.354C60.8923 84.466 61.4383 84.522 61.9983 84.522C62.5583 84.522 63.1043 84.466 63.5943 84.34V87.098H60.4023V84.354ZM61.9983 79.048C63.9023 79.048 65.2323 79.888 65.2323 81.218C65.2323 82.562 63.9023 83.402 61.9983 83.402C60.0803 83.402 58.7503 82.562 58.7503 81.218C58.7503 79.888 60.0803 79.048 61.9983 79.048ZM65.0363 87.098V83.808C66.0443 83.234 66.6463 82.338 66.6463 81.218C66.6463 79.202 64.6863 77.914 61.9983 77.914C59.2963 77.914 57.3503 79.202 57.3503 81.218C57.3503 82.338 57.9523 83.248 58.9603 83.808V87.098H56.2863V88.274H67.7383V87.098H65.0363ZM74.1072 82.506H71.0272V79.272H74.1072V82.506ZM75.5212 78.124H69.5992V83.654H75.5212V78.124ZM74.9612 88.694C73.1972 88.694 72.1752 88.246 72.1752 87.42C72.1752 86.58 73.1972 86.132 74.9612 86.132C76.7252 86.132 77.7472 86.58 77.7472 87.42C77.7472 88.246 76.7252 88.694 74.9612 88.694ZM74.9612 84.984C72.3712 84.984 70.7472 85.894 70.7472 87.42C70.7472 88.932 72.3712 89.842 74.9612 89.842C77.5652 89.842 79.1752 88.932 79.1752 87.42C79.1752 85.894 77.5652 84.984 74.9612 84.984ZM79.0352 80.196V77.186H77.5932V84.592H79.0352V81.386H80.8272V80.196H79.0352Z" fill="black"/>
<rect x="1.25" y="68" width="105.5" height="30.5" rx="15.25" stroke="#818181"/>
</svg>
