<svg width="143" height="133" viewBox="0 0 143 133" fill="none" xmlns="http://www.w3.org/2000/svg">
<rect x="15.4688" y="0.647705" width="112" height="112" rx="56" fill="#BDBDBD"/>
<path fill-rule="evenodd" clip-rule="evenodd" d="M47.4688 56.6477C47.4688 43.3997 58.1968 32.6477 71.4447 32.6477C84.7168 32.6477 95.4688 43.3997 95.4688 56.6477C95.4688 69.8957 84.7168 80.6477 71.4447 80.6477C58.1968 80.6477 47.4688 69.8957 47.4688 56.6477ZM63.4688 52.6477C65.1256 52.6477 66.4688 51.3046 66.4688 49.6477C66.4688 47.9908 65.1256 46.6477 63.4688 46.6477C61.8119 46.6477 60.4688 47.9908 60.4688 49.6477C60.4688 51.3046 61.8119 52.6477 63.4688 52.6477ZM79.4688 52.6477C81.1256 52.6477 82.4688 51.3046 82.4688 49.6477C82.4688 47.9908 81.1256 46.6477 79.4688 46.6477C77.8119 46.6477 76.4688 47.9908 76.4688 49.6477C76.4688 51.3046 77.8119 52.6477 79.4688 52.6477ZM71.4688 77.6477C59.8663 77.6477 50.4688 68.2502 50.4688 56.6477C50.4688 45.0452 59.8663 35.6477 71.4688 35.6477C83.0713 35.6477 92.4688 45.0452 92.4688 56.6477C92.4688 68.2502 83.0713 77.6477 71.4688 77.6477ZM60.4688 69.6477C62.1875 64.962 66.4629 61.6477 71.4688 61.6477C76.4746 61.6477 80.75 64.962 82.4688 69.6477H78.8809C77.377 66.9277 75.4688 64.6477 71.4688 64.6477C67.4688 64.6477 65.5391 66.9277 64.0566 69.6477H60.4688Z" fill="white"/>
<rect x="0.96875" y="91.1477" width="141" height="41" rx="20.5" fill="white"/>
<path d="M52.1162 112.302V113.712H45.5107V116.774H43.7666V113.712H36.9014V112.302H52.1162ZM38.7939 119.872V115.326H40.5381V118.444H50.4277V119.872H38.7939ZM38.9053 110.836V104.119H40.6494V106.142H48.3496V104.119H50.1123V110.836H38.9053ZM40.6494 109.426H48.3496V107.459H40.6494V109.426ZM59.2041 106.253C59.1948 108.461 60.707 110.539 63.2119 111.374L62.2471 112.784C60.4194 112.116 59.0649 110.781 58.3506 109.101C57.6177 110.948 56.2075 112.395 54.2686 113.137L53.3223 111.708C55.9292 110.808 57.4321 108.619 57.4414 106.16V104.453H59.2041V106.253ZM55.9385 115.716V114.324H67.2012V120.225H65.4385V115.716H55.9385ZM61.9316 108.406V106.958H65.4385V103.6H67.2012V113.452H65.4385V108.406H61.9316ZM81.9707 104.602C85.5239 104.611 88.1123 106.365 88.1123 109.018C88.1123 111.504 85.9414 113.165 82.8428 113.415V116.681H89.6152V118.147H74.4004V116.681H81.0986V113.415C78.0186 113.165 75.8384 111.504 75.8477 109.018C75.8384 106.365 78.436 104.611 81.9707 104.602ZM77.5547 109.018C77.5547 110.883 79.4102 112.042 81.9707 112.061C84.5498 112.042 86.396 110.883 86.4053 109.018C86.396 107.218 84.5498 106.031 81.9707 106.049C79.4102 106.031 77.5547 107.218 77.5547 109.018ZM106.018 113.471V114.863H102.195V120.225H100.414V114.863H96.4062V120.225H94.6436V114.863H90.8027V113.471H106.018ZM92.6025 105.641V104.194H104.218V108.647H94.4209V110.484H104.57V111.912H92.6582V107.329H102.418V105.641H92.6025Z" fill="black"/>
<rect x="0.96875" y="91.1477" width="141" height="41" rx="20.5" stroke="#818181"/>
</svg>
