<svg width="108" height="99" viewBox="0 0 108 99" fill="none" xmlns="http://www.w3.org/2000/svg">
<rect x="11.7539" width="84" height="84" rx="42" fill="#BDBDBD"/>
<path fill-rule="evenodd" clip-rule="evenodd" d="M35.7539 42C35.7539 32.064 43.7999 24 53.7359 24C63.6899 24 71.7539 32.064 71.7539 42C71.7539 51.936 63.6899 60 53.7359 60C43.7999 60 35.7539 51.936 35.7539 42ZM47.7539 39C48.9965 39 50.0039 37.9926 50.0039 36.75C50.0039 35.5074 48.9965 34.5 47.7539 34.5C46.5113 34.5 45.5039 35.5074 45.5039 36.75C45.5039 37.9926 46.5113 39 47.7539 39ZM59.7539 39C60.9965 39 62.0039 37.9926 62.0039 36.75C62.0039 35.5074 60.9965 34.5 59.7539 34.5C58.5113 34.5 57.5039 35.5074 57.5039 36.75C57.5039 37.9926 58.5113 39 59.7539 39ZM53.7539 57.75C45.052 57.75 38.0039 50.7019 38.0039 42C38.0039 33.2981 45.052 26.25 53.7539 26.25C62.4558 26.25 69.5039 33.2981 69.5039 42C69.5039 50.7019 62.4558 57.75 53.7539 57.75ZM45.5039 51.75C46.793 48.2357 49.9995 45.75 53.7539 45.75C57.5083 45.75 60.7148 48.2357 62.0039 51.75H59.313C58.1851 49.71 56.7539 48 53.7539 48C50.7539 48 49.3066 49.71 48.1948 51.75H45.5039Z" fill="white"/>
<rect x="1.00391" y="68" width="105.5" height="30.5" rx="15.25" fill="white"/>
<path d="M33.417 82.541V83.5801H22.2471V82.541H33.417ZM23.4502 79.3145C23.4434 77.8516 25.1455 76.9561 27.8252 76.9492C30.498 76.9561 32.1934 77.8516 32.2002 79.3145C32.1934 80.7842 30.498 81.6523 27.8252 81.6523C25.1455 81.6523 23.4434 80.7842 23.4502 79.3145ZM23.5732 86.7109C23.5732 85.2891 25.1592 84.4961 27.8252 84.5098C30.457 84.4961 32.043 85.2891 32.0498 86.7109C32.043 88.126 30.457 88.9189 27.8252 88.9121C25.1592 88.9189 23.5732 88.126 23.5732 86.7109ZM24.79 79.3145C24.7832 80.1553 25.9385 80.6338 27.8252 80.6406C29.6982 80.6338 30.8672 80.1553 30.8604 79.3145C30.8672 78.46 29.6982 77.9814 27.8252 77.9883C25.9385 77.9814 24.7832 78.46 24.79 79.3145ZM24.8857 86.7109C24.8789 87.4766 25.9521 87.9072 27.8252 87.9004C29.6709 87.9072 30.751 87.4766 30.751 86.7109C30.751 85.918 29.6709 85.4941 27.8252 85.4941C25.9521 85.4941 24.8789 85.918 24.8857 86.7109ZM38.8447 79.7793C38.8311 82.0146 40.1846 84.2705 42.085 85.1113L41.3057 86.1367C39.8975 85.4668 38.7832 84.0928 38.209 82.418C37.6416 84.2158 36.5137 85.6924 35.0439 86.4102L34.251 85.3164C36.1787 84.4619 37.5322 82.1172 37.5322 79.7793V77.6875H38.8447V79.7793ZM43.1924 88.9395V76.6621H44.4912V88.9395H43.1924ZM56.29 77.8379V85.8906H50.5479V77.8379H56.29ZM51.833 84.8379H55.0322V78.8633H51.833V84.8379ZM58.71 88.9395V76.6621H60.0088V88.9395H58.71ZM65.6826 77.209C67.4736 77.209 68.7314 78.1934 68.7451 79.6562C68.7314 80.9004 67.7881 81.8096 66.3662 82.0352V83.1289C67.4463 83.0674 68.54 82.9648 69.5518 82.8145L69.6475 83.7715C67.0771 84.2363 64.1924 84.2842 62.0869 84.2773L61.9502 83.2246C62.8662 83.2314 63.9395 83.2246 65.0674 83.1836V82.0488C63.6045 81.8437 62.627 80.9209 62.6338 79.6562C62.627 78.1934 63.8848 77.209 65.6826 77.209ZM63.6865 88.6523V85.2207H64.9854V87.5859H72.04V88.6523H63.6865ZM63.8506 79.6562C63.8369 80.5244 64.6025 81.0918 65.6826 81.0918C66.7695 81.0918 67.5146 80.5244 67.5146 79.6562C67.5146 78.7676 66.7695 78.207 65.6826 78.207C64.6025 78.207 63.8369 78.7676 63.8506 79.6562ZM70.3037 86.041V76.6758H71.6025V80.7227H73.3525V81.8164H71.6025V86.041H70.3037ZM85.2744 86.3555V87.4492H74.0635V86.3555H77.126V84.1953H75.4307V80.2988H82.6221V78.5898H75.4033V77.5234H83.9072V81.3516H76.7158V83.1289H84.1943V84.1953H82.335V86.3555H85.2744ZM78.3838 86.3555H81.0635V84.1953H78.3838V86.3555Z" fill="black"/>
<rect x="1.00391" y="68" width="105.5" height="30.5" rx="15.25" stroke="#818181"/>
</svg>
