<svg width="108" height="99" viewBox="0 0 108 99" fill="none" xmlns="http://www.w3.org/2000/svg">
<rect x="12" width="84" height="84" rx="42" fill="#3C9C9C"/>
<path fill-rule="evenodd" clip-rule="evenodd" d="M36 42C36 32.064 44.046 24 53.982 24C63.936 24 72 32.064 72 42C72 51.936 63.936 60 53.982 60C44.046 60 36 51.936 36 42ZM48 39C49.2426 39 50.25 37.9926 50.25 36.75C50.25 35.5074 49.2426 34.5 48 34.5C46.7574 34.5 45.75 35.5074 45.75 36.75C45.75 37.9926 46.7574 39 48 39ZM60 39C61.2426 39 62.25 37.9926 62.25 36.75C62.25 35.5074 61.2426 34.5 60 34.5C58.7574 34.5 57.75 35.5074 57.75 36.75C57.75 37.9926 58.7574 39 60 39ZM54 57.75C45.2981 57.75 38.25 50.7019 38.25 42C38.25 33.2981 45.2981 26.25 54 26.25C62.7019 26.25 69.75 33.2981 69.75 42C69.75 50.7019 62.7019 57.75 54 57.75ZM62.25 45.75C60.9609 49.2643 57.7544 51.75 54 51.75C50.2456 51.75 47.0391 49.2643 45.75 45.75L48.4409 45.75C49.5688 47.79 51 49.5 54 49.5C57 49.5 58.4473 47.79 59.5591 45.75H62.25Z" fill="white"/>
<rect x="1.25" y="68" width="105.5" height="30.5" rx="15.25" fill="white"/>
<path d="M34.1739 80.364V81.54H36.4139V84.718H37.8559V77.186H36.4139V80.364H34.1739ZM34.9019 83.178C33.0119 82.52 31.9339 80.952 31.9339 79.37V79.202H34.5659V78.04H27.8039V79.202H30.4779V79.384C30.4779 81.12 29.3439 82.8 27.3839 83.5L28.1259 84.648C29.6239 84.116 30.6879 82.996 31.2479 81.61C31.7799 82.828 32.7879 83.822 34.1879 84.312L34.9019 83.178ZM33.6559 88.722C31.8499 88.722 30.8279 88.274 30.8279 87.448C30.8279 86.622 31.8499 86.174 33.6559 86.174C35.4339 86.174 36.4699 86.622 36.4699 87.448C36.4699 88.274 35.4339 88.722 33.6559 88.722ZM33.6559 85.054C31.0099 85.054 29.3859 85.95 29.3859 87.448C29.3859 88.96 31.0099 89.842 33.6559 89.842C36.2879 89.842 37.9119 88.96 37.9119 87.448C37.9119 85.95 36.2879 85.054 33.6559 85.054ZM47.6128 82.968C45.7368 82.352 44.6588 80.812 44.6588 79.188V77.83H43.2028V79.076C43.2028 80.896 42.1248 82.618 40.1368 83.304L40.9068 84.452C42.3628 83.92 43.3988 82.828 43.9588 81.456C44.4908 82.646 45.4988 83.612 46.8568 84.102L47.6128 82.968ZM46.0588 88.694C44.2948 88.694 43.2728 88.26 43.2728 87.448C43.2728 86.664 44.2948 86.216 46.0588 86.216C47.8228 86.216 48.8448 86.664 48.8448 87.448C48.8448 88.26 47.8228 88.694 46.0588 88.694ZM46.0588 85.082C43.4548 85.082 41.8448 85.964 41.8448 87.448C41.8448 88.946 43.4548 89.828 46.0588 89.828C48.6768 89.828 50.2728 88.946 50.2728 87.448C50.2728 85.964 48.6768 85.082 46.0588 85.082ZM50.1328 80.308V77.172H48.6908V84.774H50.1328V81.498H51.9248V80.308H50.1328ZM56.2723 83.22V84.382H67.7103V83.22H56.2723ZM61.9703 85.264C59.2543 85.264 57.6163 86.104 57.6163 87.56C57.6163 89.016 59.2543 89.842 61.9703 89.842C64.7003 89.842 66.3243 89.016 66.3243 87.56C66.3243 86.104 64.7003 85.264 61.9703 85.264ZM61.9703 86.384C63.8183 86.384 64.8683 86.79 64.8683 87.56C64.8683 88.33 63.8183 88.736 61.9703 88.736C60.1223 88.736 59.0863 88.33 59.0863 87.56C59.0863 86.79 60.1223 86.384 61.9703 86.384ZM61.9983 77.48C59.2403 77.48 57.4903 78.404 57.4903 79.93C57.4903 81.442 59.2403 82.366 61.9983 82.366C64.7423 82.366 66.5063 81.442 66.5063 79.93C66.5063 78.404 64.7423 77.48 61.9983 77.48ZM61.9983 78.614C63.8743 78.614 65.0083 79.09 65.0083 79.93C65.0083 80.756 63.8743 81.232 61.9983 81.232C60.1223 81.232 58.9743 80.756 58.9743 79.93C58.9743 79.09 60.1223 78.614 61.9983 78.614ZM73.8272 78.236H72.3852V80.308C72.3852 82.744 71.0692 85.166 69.0532 86.076L69.9072 87.28C71.4332 86.538 72.5532 85.04 73.1272 83.206C73.7012 84.914 74.8072 86.314 76.2632 87L77.1032 85.852C75.1152 84.956 73.8272 82.632 73.8272 80.308V78.236ZM78.1112 77.172V89.856H79.5672V77.172H78.1112Z" fill="black"/>
<rect x="1.25" y="68" width="105.5" height="30.5" rx="15.25" stroke="#818181"/>
</svg>
