<svg width="108" height="99" viewBox="0 0 108 99" fill="none" xmlns="http://www.w3.org/2000/svg">
<rect x="12" width="84" height="84" rx="42" fill="#FFBC00"/>
<path fill-rule="evenodd" clip-rule="evenodd" d="M53.982 24C44.046 24 36 32.064 36 42C36 51.936 44.046 60 53.982 60C63.936 60 72 51.936 72 42C72 32.064 63.936 24 53.982 24ZM50.25 36.75C50.25 37.9926 49.2426 39 48 39C46.7574 39 45.75 37.9926 45.75 36.75C45.75 35.5074 46.7574 34.5 48 34.5C49.2426 34.5 50.25 35.5074 50.25 36.75ZM62.25 36.75C62.25 37.9926 61.2426 39 60 39C58.7574 39 57.75 37.9926 57.75 36.75C57.75 35.5074 58.7574 34.5 60 34.5C61.2426 34.5 62.25 35.5074 62.25 36.75ZM38.25 42C38.25 50.7019 45.2981 57.75 54 57.75C62.7019 57.75 69.75 50.7019 69.75 42C69.75 33.2981 62.7019 26.25 54 26.25C45.2981 26.25 38.25 33.2981 38.25 42Z" fill="white"/>
<rect x="46.8008" y="47.3999" width="14.4" height="2.7" fill="white"/>
<rect x="1.25" y="68" width="105.5" height="30.5" rx="15.25" fill="white"/>
<path d="M28.5319 83.374C30.6179 83.066 32.3259 82.03 33.0959 80.63C33.8659 82.03 35.5879 83.066 37.6739 83.374L38.1919 82.24C35.7839 81.918 34.0059 80.532 33.9219 79.062H37.7439V77.9H28.4339V79.062H32.2839C32.1999 80.532 30.4219 81.918 28.0139 82.24L28.5319 83.374ZM38.8219 84.298H27.3839V85.46H32.3399V89.842H33.7819V85.46H38.8079L38.8219 84.298ZM44.3368 78.068C42.3628 78.068 40.9068 79.314 40.9068 81.106C40.9068 82.898 42.3628 84.144 44.3368 84.144C46.3108 84.144 47.7808 82.898 47.7808 81.106C47.7808 79.314 46.3108 78.068 44.3368 78.068ZM44.3368 79.3C45.5128 79.3 46.3668 80 46.3668 81.106C46.3668 82.198 45.5128 82.912 44.3368 82.912C43.1748 82.912 42.3208 82.198 42.3208 81.106C42.3208 80 43.1748 79.3 44.3368 79.3ZM49.2088 77.172V89.842H50.6648V77.172H49.2088ZM40.5008 87.168C42.7408 87.168 45.7648 87.14 48.5508 86.608L48.4528 85.558C45.7368 85.964 42.5868 85.978 40.3188 85.978L40.5008 87.168ZM60.4023 84.354C60.8923 84.466 61.4383 84.522 61.9983 84.522C62.5583 84.522 63.1043 84.466 63.5943 84.34V87.098H60.4023V84.354ZM61.9983 79.048C63.9023 79.048 65.2323 79.888 65.2323 81.218C65.2323 82.562 63.9023 83.402 61.9983 83.402C60.0803 83.402 58.7503 82.562 58.7503 81.218C58.7503 79.888 60.0803 79.048 61.9983 79.048ZM65.0363 87.098V83.808C66.0443 83.234 66.6463 82.338 66.6463 81.218C66.6463 79.202 64.6863 77.914 61.9983 77.914C59.2963 77.914 57.3503 79.202 57.3503 81.218C57.3503 82.338 57.9523 83.248 58.9603 83.808V87.098H56.2863V88.274H67.7383V87.098H65.0363ZM74.1072 82.506H71.0272V79.272H74.1072V82.506ZM75.5212 78.124H69.5992V83.654H75.5212V78.124ZM74.9612 88.694C73.1972 88.694 72.1752 88.246 72.1752 87.42C72.1752 86.58 73.1972 86.132 74.9612 86.132C76.7252 86.132 77.7472 86.58 77.7472 87.42C77.7472 88.246 76.7252 88.694 74.9612 88.694ZM74.9612 84.984C72.3712 84.984 70.7472 85.894 70.7472 87.42C70.7472 88.932 72.3712 89.842 74.9612 89.842C77.5652 89.842 79.1752 88.932 79.1752 87.42C79.1752 85.894 77.5652 84.984 74.9612 84.984ZM79.0352 80.196V77.186H77.5932V84.592H79.0352V81.386H80.8272V80.196H79.0352Z" fill="black"/>
<rect x="1.25" y="68" width="105.5" height="30.5" rx="15.25" stroke="#818181"/>
</svg>
